<?xml version="1.0" encoding="UTF-8" standalone="no"?><!-- Generator: Gravit.io --><svg xmlns="http://www.w3.org/2000/svg" xmlns:xlink="http://www.w3.org/1999/xlink" style="isolation:isolate" viewBox="0 0 320 320" width="320pt" height="320pt"><defs><clipPath id="_clipPath_5olOSXxsq3xp1xYeZ32mHpPu7bPSazhg"><rect width="320" height="320"/></clipPath></defs><g clip-path="url(#_clipPath_5olOSXxsq3xp1xYeZ32mHpPu7bPSazhg)"><g><path d=" M 5.226 320 C 4.105 319.77 3.015 319.121 1.983 318.089 C 0.636 316.743 -0.088 315.2 0.009 313.906 C 11.21 308.161 10.888 303.67 11.21 303.349 C 12.313 302.246 15.497 304.657 17.397 306.557 C 19.297 308.457 12.585 316.984 5.226 320 Z " fill="rgb(170,161,157)"/><g><circle vector-effect="non-scaling-stroke" cx="27.500000000000025" cy="292.50000000000006" r="27.49999999999998" fill="rgb(123,94,87)"/><path d=" M 27.5 265 C 30.032 265 32.415 264.684 34.705 265.944 C 38.042 270.156 40.104 274.883 39.76 276.43 C 39.503 277.203 38.171 276.602 38.042 275.828 C 36.355 270.5 33.401 267.75 27.5 265 Z " fill="rgb(78,52,46)"/><path d=" M 47.008 284.374 C 50.225 287.129 52.824 289.262 54.802 293.505 C 54.802 290.973 55.117 288.589 53.858 286.3 C 49.645 282.963 44.401 279.781 42.854 280.125 C 42.51 281.786 42.339 279.75 43.198 281.5 C 44.695 281.974 45.733 283.283 47.008 284.374 Z " fill="rgb(78,52,46)"/><path d=" M 42.281 283.391 C 42.066 281.586 42.467 281.908 42.94 282.273 C 47.294 286.742 54.088 300.959 52.246 304.644 C 51.119 306.897 49.644 309.021 47.818 311.024 C 49.007 299.276 45.432 290.609 42.281 283.391 Z " fill="rgb(78,52,46)"/><path d=" M 36.409 276.859 C 38.214 277.074 37.548 276.645 37.182 276.172 C 31.545 268.818 19.236 265.875 15.551 267.717 C 13.298 268.844 11.174 270.319 9.171 272.145 C 20.919 270.956 30.49 273.054 36.409 276.859 Z " fill="rgb(78,52,46)"/><path d=" M 0 292.5 C 0 288.738 0.399 285.326 2.127 281.885 C 6.531 278.865 31.088 276.301 35.406 277.719 C 37.641 279.036 36.151 278.349 36.151 279.438 C 13.013 284.315 1.442 290.161 0 292.5 Z " fill="rgb(78,52,46)"/><path d=" M 27.885 319.851 C 31.647 319.851 35.059 319.452 38.5 317.724 C 41.52 313.32 43.169 287 41.221 283.562 C 39.904 281.328 40.763 283.047 39.674 283.047 C 34.797 306.185 30.224 318.409 27.885 319.851 Z " fill="rgb(78,52,46)"/><path d=" M 10.866 314.514 C 8.13 312.594 6.291 310.31 4.489 307.555 C 12.719 293.13 32.112 284.021 36.924 280.812 C 38.471 281.099 38.128 281.271 38.299 282.188 C 34.174 289.005 19.422 309.115 10.866 314.514 Z " fill="rgb(78,52,46)"/><path d=" M 37.447 281.65 C 35.547 279.751 34.9 277.313 36.003 276.21 C 37.106 275.107 39.544 275.754 41.444 277.653 C 43.344 279.553 43.99 281.991 42.887 283.094 C 41.784 284.197 39.347 283.55 37.447 281.65 Z " fill="rgb(38,14,4)"/></g><path d=" M 40.69 283.561 C 39.569 283.331 38.479 282.683 37.447 281.65 C 36.1 280.304 35.376 278.761 35.473 277.467 C 46.674 271.722 46.352 267.231 46.674 266.91 C 47.777 265.807 50.961 268.218 52.861 270.118 C 54.761 272.018 48.049 280.545 40.69 283.561 Z " fill="rgb(170,161,157)"/></g><g><g><circle vector-effect="non-scaling-stroke" cx="160.00000000000009" cy="159.99999999999997" r="160.00000000000006" fill="rgb(123,94,87)"/><path d=" M 160 0 C 174.733 0 188.599 -1.836 201.921 5.492 C 221.333 30 233.333 57.5 231.333 66.5 C 229.833 71 222.083 67.5 221.333 63 C 211.517 32 194.333 16 160 0 Z " fill="rgb(78,52,46)"/><path d=" M 273.5 112.721 C 292.217 128.748 307.342 141.161 318.846 165.846 C 318.846 151.114 320.682 137.248 313.354 123.926 C 288.846 104.513 258.333 86 249.333 88 C 247.333 97.667 246.333 85.816 251.333 96 C 260.044 98.758 266.085 106.372 273.5 112.721 Z " fill="rgb(78,52,46)"/><path d=" M 246 107 C 244.75 96.5 247.083 98.375 249.833 100.5 C 275.167 126.5 314.692 209.216 303.975 230.654 C 297.419 243.767 288.841 256.121 278.215 267.775 C 285.131 199.426 264.333 149 246 107 Z " fill="rgb(78,52,46)"/><path d=" M 211.833 69 C 222.333 70.25 218.458 67.75 216.333 65 C 183.532 22.215 111.919 5.094 90.481 15.811 C 77.368 22.366 65.013 30.945 53.36 41.57 C 121.709 34.655 177.397 46.859 211.833 69 Z " fill="rgb(78,52,46)"/><path d=" M 0 160 C 0 138.114 2.323 118.257 12.373 98.242 C 38 80.667 180.875 65.75 206 74 C 219 81.667 210.333 77.667 210.333 84 C 75.711 112.379 8.388 146.389 0 160 Z " fill="rgb(78,52,46)"/><path d=" M 162.24 319.133 C 184.125 319.133 203.982 316.811 223.997 306.761 C 241.573 281.133 251.167 128 239.833 108 C 232.167 95 237.167 105 230.833 105 C 202.454 239.622 175.85 310.745 162.24 319.133 Z " fill="rgb(78,52,46)"/><path d=" M 63.22 288.084 C 47.302 276.908 36.603 263.62 26.116 247.591 C 74 163.667 186.833 110.667 214.833 92 C 223.833 93.667 221.833 94.667 222.833 100 C 198.833 139.667 113 256.667 63.22 288.084 Z " fill="rgb(78,52,46)"/><path d=" M 217.873 96.874 C 206.82 85.821 203.057 71.638 209.474 65.22 C 215.892 58.803 230.075 62.566 241.128 73.619 C 252.181 84.671 255.944 98.855 249.527 105.272 C 243.109 111.69 228.926 107.927 217.873 96.874 Z " fill="rgb(38,14,4)"/></g><path d=" M 236.74 107.992 C 230.218 106.654 223.879 102.88 217.873 96.874 C 210.039 89.04 205.824 80.064 206.386 72.535 C 271.556 39.111 269.686 12.98 271.556 11.111 C 277.973 4.694 296.503 18.725 307.556 29.778 C 318.608 40.831 279.556 90.444 236.74 107.992 Z " fill="rgb(170,161,157)"/></g></g></svg>